<svg id="Layer_1" data-name="Layer 1" xmlns="http://www.w3.org/2000/svg" viewBox="0 0 492.79 371.31"><defs><style>.cls-1{fill:#127ab6;}.cls-2{fill:#5ec3b6;}.cls-3{fill:#cb262e;}.cls-4{fill:#137bb6;}.cls-5{fill:#5fc4b7;}.cls-6{fill:#cb252e;}</style></defs><path class="cls-1" d="M38.7,419.72a10.86,10.86,0,0,1-1.73,6,11.45,11.45,0,0,1-5,4.18A18.87,18.87,0,0,1,24,431.43a17.71,17.71,0,0,1-9-2.07,12,12,0,0,1-4.09-4,9,9,0,0,1-1.58-4.83,3.28,3.28,0,0,1,3.35-3.3,2.89,2.89,0,0,1,2,.76,5.9,5.9,0,0,1,1.39,2.24,14.67,14.67,0,0,0,1.53,3,6.09,6.09,0,0,0,2.3,1.95,8.53,8.53,0,0,0,3.9.77,8.85,8.85,0,0,0,5.41-1.55,4.67,4.67,0,0,0,2.08-3.87,4.11,4.11,0,0,0-1.12-3,7.19,7.19,0,0,0-2.9-1.75c-1.18-.41-2.77-.83-4.75-1.29a35,35,0,0,1-6.66-2.17,10.83,10.83,0,0,1-4.26-3.41,8.79,8.79,0,0,1-1.57-5.35,9.17,9.17,0,0,1,1.66-5.41,10.49,10.49,0,0,1,4.81-3.64,19.68,19.68,0,0,1,7.41-1.27,18.44,18.44,0,0,1,5.88.84,12.55,12.55,0,0,1,4.12,2.24,9.39,9.39,0,0,1,2.39,2.94,6.78,6.78,0,0,1,.75,3,3.56,3.56,0,0,1-.94,2.41,3,3,0,0,1-2.36,1.07,2.76,2.76,0,0,1-2-.64A8.76,8.76,0,0,1,30.38,403,9.52,9.52,0,0,0,28,399.73a7.1,7.1,0,0,0-4.54-1.17,7.82,7.82,0,0,0-4.67,1.27A3.72,3.72,0,0,0,17,402.89a3.14,3.14,0,0,0,.61,1.92,5.1,5.1,0,0,0,1.66,1.38,11.27,11.27,0,0,0,2.14.91c.72.22,1.92.54,3.58,1a53.34,53.34,0,0,1,5.65,1.61,17.16,17.16,0,0,1,4.31,2.14A8.78,8.78,0,0,1,37.7,415,10.2,10.2,0,0,1,38.7,419.72Z" transform="translate(-9.35 -70.32)"/><path class="cls-1" d="M69,400.05H60.86v26.82a4.93,4.93,0,0,1-1,3.44,3.46,3.46,0,0,1-2.67,1.12,3.54,3.54,0,0,1-2.71-1.13,4.91,4.91,0,0,1-1-3.43V400.05H45.24a4.14,4.14,0,0,1-2.84-.85,2.85,2.85,0,0,1-.93-2.23,2.81,2.81,0,0,1,1-2.26,4.14,4.14,0,0,1,2.8-.83H69a4.21,4.21,0,0,1,2.89.85,2.88,2.88,0,0,1,.94,2.24,2.81,2.81,0,0,1-1,2.23A4.24,4.24,0,0,1,69,400.05Z" transform="translate(-9.35 -70.32)"/><path class="cls-1" d="M77.58,426.87V397.78a4.89,4.89,0,0,1,1-3.4,3.43,3.43,0,0,1,2.67-1.13A3.56,3.56,0,0,1,84,394.37a4.82,4.82,0,0,1,1,3.41v29.09a4.91,4.91,0,0,1-1,3.43,3.57,3.57,0,0,1-2.73,1.13,3.42,3.42,0,0,1-2.66-1.15A4.89,4.89,0,0,1,77.58,426.87Z" transform="translate(-9.35 -70.32)"/><path class="cls-1" d="M101,397.78v13l14.68-15.32a14.67,14.67,0,0,1,1.8-1.64,3.39,3.39,0,0,1,2-.52,3.62,3.62,0,0,1,2.61.94,3.07,3.07,0,0,1,1,2.3,4.57,4.57,0,0,1-1.68,3.25l-9.1,8.62,10.48,15a18.65,18.65,0,0,1,1.66,2.73,5.31,5.31,0,0,1,.56,2.28,2.84,2.84,0,0,1-1,2.14,3.69,3.69,0,0,1-2.63.91,4.41,4.41,0,0,1-2.55-.67,5.65,5.65,0,0,1-1.66-1.77c-.45-.74-.86-1.41-1.21-2l-8.84-13.6L101,419.24v7.63a4.84,4.84,0,0,1-1.06,3.44,3.55,3.55,0,0,1-2.72,1.12,3.72,3.72,0,0,1-1.84-.5A3.55,3.55,0,0,1,94,429.57a4.55,4.55,0,0,1-.43-1.64c0-.62-.07-1.52-.07-2.7V397.78a5,5,0,0,1,1-3.4,3.42,3.42,0,0,1,2.71-1.13,3.53,3.53,0,0,1,2.73,1.12A4.82,4.82,0,0,1,101,397.78Z" transform="translate(-9.35 -70.32)"/><path class="cls-1" d="M148.36,419.14H134.91a9.08,9.08,0,0,0,1,4.13,6.33,6.33,0,0,0,5.8,3.6,8.42,8.42,0,0,0,2.26-.29,7,7,0,0,0,2-.91,15.08,15.08,0,0,0,1.77-1.32c.53-.47,1.23-1.11,2.09-1.91a2.25,2.25,0,0,1,1.51-.46,2.53,2.53,0,0,1,1.71.58,2.08,2.08,0,0,1,.66,1.64,4.55,4.55,0,0,1-.73,2.18,8.71,8.71,0,0,1-2.21,2.39,12.35,12.35,0,0,1-3.7,1.9,15.82,15.82,0,0,1-5.13.76q-6.62,0-10.3-3.78t-3.68-10.25a17.16,17.16,0,0,1,.91-5.65,12.62,12.62,0,0,1,2.65-4.48,11.33,11.33,0,0,1,4.28-2.85,15.18,15.18,0,0,1,5.64-1,13.38,13.38,0,0,1,6.91,1.7,11.06,11.06,0,0,1,4.32,4.4A11.49,11.49,0,0,1,154,415c0,1.73-.5,2.85-1.49,3.36A9.27,9.27,0,0,1,148.36,419.14Zm-13.45-3.91h12.47a8.33,8.33,0,0,0-1.9-5.27,5.69,5.69,0,0,0-4.35-1.75,5.52,5.52,0,0,0-4.22,1.77A8.89,8.89,0,0,0,134.91,415.23Z" transform="translate(-9.35 -70.32)"/><path class="cls-1" d="M182,422.44a8,8,0,0,1-5.48,7.94,18.23,18.23,0,0,1-6.58,1.05,16.16,16.16,0,0,1-6.35-1.13,9.24,9.24,0,0,1-3.9-2.84,5.7,5.7,0,0,1-1.26-3.41,2.67,2.67,0,0,1,.8-1.94,2.77,2.77,0,0,1,2-.81,2.42,2.42,0,0,1,1.67.53,6,6,0,0,1,1.1,1.49,6.61,6.61,0,0,0,6.55,3.65,5.75,5.75,0,0,0,3.39-.92,2.58,2.58,0,0,0,1.32-2.1,2.88,2.88,0,0,0-1.37-2.65,17.07,17.07,0,0,0-4.52-1.58,38.15,38.15,0,0,1-5.78-1.85,9.53,9.53,0,0,1-3.57-2.56,5.86,5.86,0,0,1-1.33-3.9,6.92,6.92,0,0,1,1.23-3.91,8.56,8.56,0,0,1,3.64-2.93,14,14,0,0,1,5.81-1.1,19.05,19.05,0,0,1,4.8.56,12.12,12.12,0,0,1,3.55,1.48,7.17,7.17,0,0,1,2.16,2.07,4,4,0,0,1,.75,2.21,2.56,2.56,0,0,1-.8,1.94,3.11,3.11,0,0,1-2.25.76,2.71,2.71,0,0,1-1.8-.61,11.38,11.38,0,0,1-1.7-1.81,6.25,6.25,0,0,0-1.84-1.61,5.83,5.83,0,0,0-2.87-.61,5.6,5.6,0,0,0-3.1.8,2.32,2.32,0,0,0-1.23,2,2.14,2.14,0,0,0,.9,1.78,7.77,7.77,0,0,0,2.45,1.15c1,.3,2.43.67,4.23,1.1a23.08,23.08,0,0,1,5.22,1.87,8.58,8.58,0,0,1,3.08,2.56A5.7,5.7,0,0,1,182,422.44Z" transform="translate(-9.35 -70.32)"/><path class="cls-1" d="M213.62,425.23l-5.92-23.52V427.2a4.62,4.62,0,0,1-.94,3.17,3.47,3.47,0,0,1-5,0,4.61,4.61,0,0,1-.95-3.18V398c0-1.61.42-2.7,1.26-3.26a6,6,0,0,1,3.4-.84h2.31a8.93,8.93,0,0,1,3,.37,2.59,2.59,0,0,1,1.4,1.36,22,22,0,0,1,1,3.2L218.63,419,224,398.81a22,22,0,0,1,1-3.2,2.55,2.55,0,0,1,1.4-1.36,8.93,8.93,0,0,1,3-.37h2.31a6,6,0,0,1,3.4.84c.84.56,1.26,1.65,1.26,3.26V427.2a4.62,4.62,0,0,1-.94,3.17,3.22,3.22,0,0,1-2.53,1.06,3.15,3.15,0,0,1-2.45-1.06,4.57,4.57,0,0,1-1-3.17V401.71l-5.92,23.52c-.39,1.53-.7,2.65-1,3.37a4.67,4.67,0,0,1-1.34,1.95,4,4,0,0,1-2.73.88,4.06,4.06,0,0,1-2.21-.57,3.92,3.92,0,0,1-1.41-1.45,8.14,8.14,0,0,1-.8-2C214,426.75,213.82,426,213.62,425.23Z" transform="translate(-9.35 -70.32)"/><path class="cls-1" d="M261.5,427.55v-.88a15.32,15.32,0,0,1-2.59,2.62,9.64,9.64,0,0,1-3,1.57,11.89,11.89,0,0,1-3.68.52,9.5,9.5,0,0,1-4.47-1,7.53,7.53,0,0,1-3.06-2.85,12.55,12.55,0,0,1-1.29-6.3V407.58a4.41,4.41,0,0,1,.94-3.09,3.17,3.17,0,0,1,2.46-1,3.31,3.31,0,0,1,2.52,1,4.39,4.39,0,0,1,1,3.08v11a16.91,16.91,0,0,0,.4,4,4.87,4.87,0,0,0,1.45,2.55,4.15,4.15,0,0,0,2.83.91,5.78,5.78,0,0,0,3.28-1,6,6,0,0,0,2.24-2.69q.59-1.47.58-6.4v-8.36a4.39,4.39,0,0,1,1-3.08,3.27,3.27,0,0,1,2.49-1,3.18,3.18,0,0,1,2.47,1,4.46,4.46,0,0,1,.93,3.09V427.5a4.3,4.3,0,0,1-.89,2.95,3.19,3.19,0,0,1-4.64,0A4.13,4.13,0,0,1,261.5,427.55Z" transform="translate(-9.35 -70.32)"/><path class="cls-1" d="M281.63,421.51v5.74a4.43,4.43,0,0,1-1,3.13,3.28,3.28,0,0,1-2.5,1.05,3.13,3.13,0,0,1-2.44-1.06,4.5,4.5,0,0,1-1-3.12V408.11q0-4.64,3.35-4.64a2.8,2.8,0,0,1,2.47,1.08,6,6,0,0,1,.83,3.2,12.22,12.22,0,0,1,2.53-3.2,5.26,5.26,0,0,1,3.47-1.08,8.87,8.87,0,0,1,4.2,1.08,3.25,3.25,0,0,1,2,2.88,2.7,2.7,0,0,1-.87,2.07,2.67,2.67,0,0,1-1.87.82,8.62,8.62,0,0,1-1.83-.46,8.51,8.51,0,0,0-2.56-.47,3.76,3.76,0,0,0-2.46.79,5.09,5.09,0,0,0-1.49,2.36,16.35,16.35,0,0,0-.73,3.71C281.7,417.69,281.63,419.44,281.63,421.51Z" transform="translate(-9.35 -70.32)"/><path class="cls-1" d="M303.64,407.27v.84a12,12,0,0,1,4-3.52,10.62,10.62,0,0,1,4.95-1.12,9.88,9.88,0,0,1,4.86,1.19,7.49,7.49,0,0,1,3.2,3.34,8,8,0,0,1,.88,2.73,28.83,28.83,0,0,1,.2,3.72v12.8a4.55,4.55,0,0,1-.94,3.12,3.13,3.13,0,0,1-2.46,1.06,3.18,3.18,0,0,1-2.49-1.08,4.55,4.55,0,0,1-1-3.1V415.79a11.44,11.44,0,0,0-.94-5.2c-.63-1.2-1.89-1.8-3.77-1.8a5.57,5.57,0,0,0-3.35,1.09,6.31,6.31,0,0,0-2.22,3,21.87,21.87,0,0,0-.5,5.74v8.62a4.43,4.43,0,0,1-1,3.13,3.26,3.26,0,0,1-2.51,1.05,3.12,3.12,0,0,1-2.44-1.08,4.55,4.55,0,0,1-1-3.1V407.38a4.35,4.35,0,0,1,.86-2.94,3,3,0,0,1,2.34-1,3.14,3.14,0,0,1,1.64.43,3,3,0,0,1,1.17,1.28A4.58,4.58,0,0,1,303.64,407.27Z" transform="translate(-9.35 -70.32)"/><path class="cls-1" d="M332,400.27a3.62,3.62,0,0,1-2.46-.88,3.42,3.42,0,0,1,0-4.9,3.48,3.48,0,0,1,2.43-.94,3.61,3.61,0,0,1,2.37.85,3.09,3.09,0,0,1,1,2.5,3.15,3.15,0,0,1-1,2.48A3.51,3.51,0,0,1,332,400.27Zm3.4,7.11v19.87a4.45,4.45,0,0,1-1,3.12,3.26,3.26,0,0,1-2.5,1.06,3.11,3.11,0,0,1-2.45-1.08,4.6,4.6,0,0,1-.95-3.1V407.58a4.44,4.44,0,0,1,.95-3.08,3.2,3.2,0,0,1,2.45-1,3.34,3.34,0,0,1,2.5,1A4,4,0,0,1,335.43,407.38Z" transform="translate(-9.35 -70.32)"/><path class="cls-1" d="M379.88,400.05h-8.16v26.82a4.93,4.93,0,0,1-1,3.44,3.46,3.46,0,0,1-2.67,1.12,3.54,3.54,0,0,1-2.71-1.13,5,5,0,0,1-1-3.43V400.05h-8.16a4.15,4.15,0,0,1-2.85-.85,2.85,2.85,0,0,1-.93-2.23,2.81,2.81,0,0,1,1-2.26,4.17,4.17,0,0,1,2.81-.83h23.77a4.19,4.19,0,0,1,2.89.85,2.88,2.88,0,0,1,.94,2.24,2.84,2.84,0,0,1-.95,2.23A4.27,4.27,0,0,1,379.88,400.05Z" transform="translate(-9.35 -70.32)"/><path class="cls-1" d="M403.61,419.14H390.16a9.21,9.21,0,0,0,.94,4.13,6.49,6.49,0,0,0,2.45,2.69,6.37,6.37,0,0,0,3.36.91,8.47,8.47,0,0,0,2.26-.29,7.13,7.13,0,0,0,2-.91,15.08,15.08,0,0,0,1.77-1.32c.53-.47,1.23-1.11,2.09-1.91a2.25,2.25,0,0,1,1.51-.46,2.53,2.53,0,0,1,1.71.58,2.08,2.08,0,0,1,.66,1.64,4.47,4.47,0,0,1-.74,2.18,8.51,8.51,0,0,1-2.2,2.39,12.35,12.35,0,0,1-3.7,1.9,15.82,15.82,0,0,1-5.13.76q-6.62,0-10.3-3.78t-3.68-10.25a17.16,17.16,0,0,1,.91-5.65,12.6,12.6,0,0,1,2.64-4.48,11.45,11.45,0,0,1,4.29-2.85,15.18,15.18,0,0,1,5.64-1,13.41,13.41,0,0,1,6.91,1.7,11.19,11.19,0,0,1,4.32,4.4,11.49,11.49,0,0,1,1.44,5.49c0,1.73-.5,2.85-1.49,3.36A9.27,9.27,0,0,1,403.61,419.14Zm-13.45-3.91h12.47a8.33,8.33,0,0,0-1.9-5.27,5.69,5.69,0,0,0-4.35-1.75,5.52,5.52,0,0,0-4.22,1.77A8.89,8.89,0,0,0,390.16,415.23Z" transform="translate(-9.35 -70.32)"/><path class="cls-1" d="M439.68,408.51v20a21.22,21.22,0,0,1-.73,5.9,9.57,9.57,0,0,1-2.34,4.08,9.94,9.94,0,0,1-4.22,2.39,23,23,0,0,1-6.49.78,19,19,0,0,1-6.35-1,11,11,0,0,1-4.3-2.57,4.68,4.68,0,0,1-1.51-3.24,2.66,2.66,0,0,1,.85-2.05,2.93,2.93,0,0,1,2.07-.8,3.37,3.37,0,0,1,2.64,1.34c.37.45.75.91,1.15,1.37a6.69,6.69,0,0,0,1.31,1.19,5.28,5.28,0,0,0,1.72.73,10.71,10.71,0,0,0,2.32.23,9.29,9.29,0,0,0,4.14-.74A4.23,4.23,0,0,0,432,434a8.51,8.51,0,0,0,.69-2.85c.07-1,.12-2.65.15-4.9a11.4,11.4,0,0,1-3.66,3.37,10.06,10.06,0,0,1-4.95,1.16,10.46,10.46,0,0,1-6-1.76,11.19,11.19,0,0,1-4-4.94,18.25,18.25,0,0,1-1.39-7.33,17.18,17.18,0,0,1,.85-5.59,11.72,11.72,0,0,1,2.4-4.21,10.26,10.26,0,0,1,3.61-2.58,11.29,11.29,0,0,1,4.48-.87,10.85,10.85,0,0,1,5.06,1.12,12.34,12.34,0,0,1,4,3.52v-.94a4,4,0,0,1,.88-2.77,2.94,2.94,0,0,1,2.27-1,2.65,2.65,0,0,1,2.64,1.3A8.43,8.43,0,0,1,439.68,408.51Zm-19.93,8.71q0,4.18,1.83,6.33a5.94,5.94,0,0,0,4.72,2.14,6.19,6.19,0,0,0,3.24-.92A6.8,6.8,0,0,0,432,422a9.71,9.71,0,0,0,1-4.5,10.35,10.35,0,0,0-1.85-6.55,5.93,5.93,0,0,0-4.88-2.34,5.73,5.73,0,0,0-4.72,2.24A10.08,10.08,0,0,0,419.75,417.22Z" transform="translate(-9.35 -70.32)"/><path class="cls-1" d="M464.49,427.55v-.88a15.36,15.36,0,0,1-2.6,2.62,9.42,9.42,0,0,1-3,1.57,11.85,11.85,0,0,1-3.68.52,9.5,9.5,0,0,1-4.47-1,7.66,7.66,0,0,1-3.06-2.85,12.67,12.67,0,0,1-1.28-6.3V407.58a4.46,4.46,0,0,1,.93-3.09,3.18,3.18,0,0,1,2.47-1,3.31,3.31,0,0,1,2.52,1,4.39,4.39,0,0,1,1,3.08v11a16.91,16.91,0,0,0,.4,4,4.87,4.87,0,0,0,1.45,2.55,4.13,4.13,0,0,0,2.83.91,5.73,5.73,0,0,0,3.27-1,6,6,0,0,0,2.25-2.69q.57-1.47.57-6.4v-8.36a4.39,4.39,0,0,1,1-3.08,3.28,3.28,0,0,1,2.5-1,3.17,3.17,0,0,1,2.46,1,4.46,4.46,0,0,1,.94,3.09V427.5a4.25,4.25,0,0,1-.9,2.95,3.18,3.18,0,0,1-4.63,0A4.08,4.08,0,0,1,464.49,427.55Z" transform="translate(-9.35 -70.32)"/><path class="cls-1" d="M484.51,397.43v10.2a15.06,15.06,0,0,1,2.56-2.4,9.51,9.51,0,0,1,2.76-1.32,11.66,11.66,0,0,1,3.25-.44,9.5,9.5,0,0,1,4.64,1.11,7.85,7.85,0,0,1,3.19,3.22,8,8,0,0,1,1,2.76,21.62,21.62,0,0,1,.25,3.52v13.17a4.55,4.55,0,0,1-.94,3.12,3.19,3.19,0,0,1-2.51,1.06c-2.26,0-3.4-1.39-3.4-4.18V415.64a10.62,10.62,0,0,0-1-5.08c-.65-1.18-1.9-1.77-3.73-1.77a5.56,5.56,0,0,0-3.31,1,6.27,6.27,0,0,0-2.2,2.86,18.23,18.23,0,0,0-.56,5.47v9.09a4.6,4.6,0,0,1-.92,3.11,3.19,3.19,0,0,1-2.55,1.07q-3.41,0-3.4-4.18V397.43a4.71,4.71,0,0,1,.89-3.14,3.11,3.11,0,0,1,2.51-1,3.2,3.2,0,0,1,2.55,1.05A4.62,4.62,0,0,1,484.51,397.43Z" transform="translate(-9.35 -70.32)"/><path class="cls-1" d="M266.54,261.65c12.72-43.94,36.76-56.81,76.47-60.2,25.24-2.15,50.08-6.49,73.22-17.52a119.93,119.93,0,0,0,39.48-30c-.92,13.56-5.58,24-13.5,33.84-10.09,12.47-20.16,24.92-27.65,39.19-13.76,26.21-12.5,36.72,7.36,58.79,10.4,11.56,20.95,23,29.1,36.34,10.11,16.56,13.66,29.23,14.07,50.95-7.16-11-8.88-13.9-13.75-19.95-25.73-31.92-64.77-39.77-106.61-20.91-15.69,7.07-28.66,18-41.57,29.13-9.44,8.11-17.8,13.26-34.86,16.63,16.3-21.48,31.3-41.42,46.5-61.2,7.75-10.08,14.33-20.8,18.81-32.68,7.13-18.94,2.66-35.35-11.54-43.73-14.56-8.6-31.62-7.45-46.12,8.74C272.12,253.37,272.29,254,266.54,261.65Z" transform="translate(-9.35 -70.32)"/><path class="cls-2" d="M80.78,371c-3.15-29.43,5.58-53.1,20-75.19,6.1-9.33,12.85-18.31,18.19-28.07,4.27-7.8,6.53-17.38-.43-24.43-6.71-6.81-15.46-3.38-23.07.23C88,247,81,251.41,73.42,254.62c-7.11,3-17.49,5.82-26.51.75,34.51-12.55,64.58-44.2,102.67-51.79,49.11-9.79,85.58,7.87,104.41,45.52l6.27,12.55c-5.44-5.86-15.36-14.06-20.92-18.47-10.16-8.05-21.59-10.82-33.91-4.37-12,6.28-17.66,16.07-16.74,29.65,1.16,17.15,9.13,31.53,18.94,44.89,15.15,20.64,35.59,42,52.63,64.39-15.69-6.28-25.73-13.7-34.73-20-15.11-10.55-29.85-21.56-47.39-28.1-35.4-13.19-59.46-6.35-84.57,24.58C89.53,359.22,85.78,364.42,80.78,371Z" transform="translate(-9.35 -70.32)"/><path class="cls-3" d="M262.13,101.08c16.09-9.14,31.78-18.7,48.07-27.08,12.75-6.57,25.14-4.53,33.62,7.58,9.51,13.58,19.76,12.9,32.19,4.72a204.57,204.57,0,0,1,23-12.55c19.47-9.5,40.08,5.92,52.63,24.74-22-12.55-42.8-3.43-56.06,5.9-15.36,10.8-26.26,17.16-40.35-3.19-6.49-9.38-17-11.12-27.51-6.43s-21,10-31.4,15.31C278.11,119.46,275.78,119,262.13,101.08Z" transform="translate(-9.35 -70.32)"/><path class="cls-4" d="M387.82,165.34c.31,12.57-8.84,22.18-21.35,22.41-11.76.22-22.38-10.24-22.27-21.94.1-11,9.95-21.23,21-21.92C376.74,143.18,387.52,153.42,387.82,165.34Z" transform="translate(-9.35 -70.32)"/><path class="cls-5" d="M177.16,166.61c-.08,10.93-10.82,21.19-21.73,20.77s-19.69-9.91-19.82-21.13c-.13-11.52,9.62-21.63,20.8-21.57C167.07,144.75,177.24,155.49,177.16,166.61Z" transform="translate(-9.35 -70.32)"/><polygon class="cls-6" points="284.64 228.19 264.24 228.19 264.24 207.8 242.28 207.8 242.28 228.19 221.89 228.19 221.89 250.16 242.28 250.16 242.28 270.55 264.24 270.55 264.24 250.16 284.64 250.16 284.64 228.19"/></svg>