<svg id="Layer_1" data-name="Layer 1" xmlns="http://www.w3.org/2000/svg" viewBox="0 0 418.18 307.65"><defs><style>.cls-1{fill:#127ab6;}.cls-2{fill:#5ec3b6;}.cls-3{fill:#cb262e;}.cls-4{fill:#137bb6;}.cls-5{fill:#5fc4b7;}.cls-6{fill:#cb252e;}</style></defs><path class="cls-1" d="M266.54,293.5c12.72-43.93,36.76-56.8,76.47-60.19,25.24-2.15,50.08-6.49,73.22-17.53a119.79,119.79,0,0,0,39.48-30c-.92,13.57-5.58,24.06-13.5,33.85-10.09,12.47-20.16,24.91-27.65,39.19-13.76,26.21-12.5,36.72,7.36,58.79,10.4,11.56,20.95,23,29.1,36.34,10.11,16.55,13.66,29.22,14.07,50.94-7.16-11-8.88-13.89-13.75-19.94-25.73-31.92-64.77-39.77-106.61-20.91-15.69,7.07-28.66,18-41.57,29.12-9.44,8.12-17.8,13.27-34.86,16.63,16.3-21.47,31.3-41.41,46.5-61.19,7.75-10.08,14.33-20.81,18.81-32.69,7.13-18.93,2.66-35.34-11.54-43.72-14.56-8.6-31.62-7.46-46.12,8.73C272.12,285.23,272.29,285.83,266.54,293.5Z" transform="translate(-46.91 -102.18)"/><path class="cls-2" d="M80.78,402.82c-3.15-29.43,5.58-53.09,20-75.18,6.1-9.34,12.85-18.32,18.19-28.07,4.27-7.8,6.53-17.38-.43-24.43-6.71-6.82-15.46-3.39-23.07.22C88,278.89,81,283.27,73.42,286.47c-7.11,3-17.49,5.83-26.51.76,34.51-12.55,64.58-44.21,102.67-51.8C198.69,225.65,235.16,243.3,254,281l6.27,12.55c-5.44-5.85-15.36-14.05-20.92-18.46-10.16-8.06-21.59-10.83-33.91-4.37-12,6.28-17.66,16.07-16.74,29.65,1.16,17.14,9.13,31.53,18.94,44.89,15.15,20.64,35.59,42,52.63,64.38-15.69-6.27-25.73-13.69-34.73-20-15.11-10.55-29.85-21.55-47.39-28.09-35.4-13.19-59.46-6.35-84.57,24.58C89.53,391.08,85.78,396.28,80.78,402.82Z" transform="translate(-46.91 -102.18)"/><path class="cls-3" d="M262.13,132.93c16.09-9.13,31.78-18.69,48.07-27.08,12.75-6.56,25.14-4.52,33.62,7.59,9.51,13.58,19.76,12.89,32.19,4.71a202.91,202.91,0,0,1,23-12.54c19.47-9.5,40.08,5.91,52.63,24.74-22-12.55-42.8-3.43-56.06,5.89-15.36,10.8-26.26,17.16-40.35-3.18-6.49-9.38-17-11.12-27.51-6.43s-21,10-31.4,15.3C278.11,151.32,275.78,150.85,262.13,132.93Z" transform="translate(-46.91 -102.18)"/><path class="cls-4" d="M387.82,197.19c.31,12.58-8.84,22.19-21.35,22.42-11.76.22-22.38-10.24-22.27-22,.1-11,9.95-21.22,21-21.91C376.74,175,387.52,185.27,387.82,197.19Z" transform="translate(-46.91 -102.18)"/><path class="cls-5" d="M177.16,198.47c-.08,10.92-10.82,21.18-21.73,20.76s-19.69-9.9-19.82-21.12c-.13-11.52,9.62-21.64,20.8-21.57C167.07,176.6,177.24,187.35,177.16,198.47Z" transform="translate(-46.91 -102.18)"/><polygon class="cls-6" points="247.08 228.19 226.69 228.19 226.69 207.8 204.73 207.8 204.73 228.19 184.33 228.19 184.33 250.16 204.73 250.16 204.73 270.55 226.69 270.55 226.69 250.16 247.08 250.16 247.08 228.19"/></svg>